<svg width="24" height="24" viewBox="0 0 24 24" fill="none" xmlns="http://www.w3.org/2000/svg">
<path fill-rule="evenodd" clip-rule="evenodd" d="M5.80712 1.72977C5.81375 1.72321 5.81943 1.71758 5.82416 1.7129C5.8573 1.65008 5.80712 1.65665 5.77871 1.66133H5.77587C5.76925 1.66227 5.76451 1.66321 5.76262 1.66227C5.75694 1.66602 5.75126 1.66977 5.74652 1.67258C5.21439 2.02226 4.71823 2.39726 4.25712 2.79664C3.03283 3.85695 2.06325 5.08317 1.35977 6.42013C0.531265 7.99606 0.0739378 9.72563 0.00577627 11.5201C-0.200638 18.2852 5.15013 24 12.0337 24C19.0641 24 23.8788 18.8936 24 11.7404C23.8816 9.47356 23.3722 7.72884 22.6479 6.33757C21.8402 4.78507 20.7646 3.67311 19.672 2.7676C19.2166 2.39073 18.7583 2.05041 18.3152 1.72793C18.3104 1.72512 18.3057 1.72137 18.3009 1.71762C18.2858 1.7073 18.2716 1.69605 18.2564 1.68574C17.9856 1.57043 18.1192 1.71387 18.1873 1.77949C18.1949 1.78699 18.2025 1.79355 18.2082 1.79824L18.2186 1.80855C18.62 2.27729 18.9656 2.73574 19.263 3.18199C20.1767 4.55636 20.6274 5.82389 20.7836 6.95812C21.2873 10.6087 18.7393 12.8794 18.7393 12.8794C15.9782 15.225 14.4085 13.0097 14.4085 13.0097C13.0052 11.1647 13.6008 8.15715 14.3734 6.751C14.8639 5.92319 15.485 5.41601 15.949 5.12633C16.2482 4.93977 16.3524 4.50008 16.1185 4.23853L15.4784 3.52321C15.3269 3.35353 15.075 3.30946 14.8819 3.43134C13.6434 4.20946 13.063 5.15913 13.063 5.15913C13.116 3.98165 13.6377 2.92602 13.9351 2.41499C13.9985 2.30625 14.0222 2.18156 14.0051 2.06344C13.9909 1.96782 13.9512 1.87595 13.8839 1.8L12.51 0.247498C12.2175 -0.0824994 11.7005 -0.0824994 11.4069 0.247498L10.0141 1.82061C9.86261 1.99124 9.8522 2.24248 9.9734 2.43467C10.8758 3.86811 10.8331 5.13561 10.8331 5.13561C10.195 4.18124 9.42895 3.64124 9.0114 3.39563C8.8315 3.28969 8.60803 3.33657 8.4679 3.49125L7.74166 4.28718C7.51631 4.53563 7.60342 4.93124 7.89316 5.09998C9.16195 5.83872 9.53594 6.76684 9.53594 6.76684C11.4704 10.4971 9.55962 12.9581 9.55962 12.9581C7.62329 15.2249 5.12645 12.8362 5.12645 12.8362C3.26965 10.9659 2.92596 8.89975 3.2138 7.06041C3.44957 5.55574 4.10764 4.20299 4.70604 3.23267C5.10846 2.58017 5.48435 2.10113 5.6851 1.86581C5.74001 1.80206 5.78155 1.75602 5.80712 1.72977ZM1.94213 11.6465C2.34455 12.5071 2.92875 13.3621 3.74305 14.1814L3.76104 14.2001L3.77903 14.217L5.12645 12.8362C3.77907 14.2171 3.77998 14.2179 3.77998 14.2179L3.78092 14.2198L3.78376 14.2217L3.79039 14.2282C3.79513 14.232 3.79986 14.2367 3.80554 14.2423C3.8169 14.2535 3.83111 14.2657 3.84815 14.2807C3.88129 14.3117 3.92485 14.3501 3.97882 14.3951C4.08486 14.4851 4.23163 14.6023 4.41343 14.7317C4.76755 14.9848 5.29873 15.3138 5.95017 15.5501C6.6035 15.7863 7.4623 15.9598 8.41 15.7817C9.39473 15.5979 10.2961 15.0691 11.0405 14.1982L11.0698 14.1645L11.0973 14.1288L9.55962 12.9581C11.0973 14.129 11.0982 14.1279 11.0982 14.127L11.1001 14.1251L11.103 14.1204L11.1096 14.112C11.1143 14.1054 11.12 14.0988 11.1257 14.0913C11.1361 14.0763 11.1494 14.0585 11.1636 14.0379C11.1929 13.9976 11.2289 13.946 11.2687 13.8842C11.3491 13.7604 11.4486 13.5945 11.5556 13.3882C11.6881 13.1304 11.832 12.807 11.9608 12.4226C12.1521 13.0198 12.438 13.6067 12.848 14.1495C12.848 14.1504 12.849 14.1514 12.8499 14.1523C12.8613 14.1682 12.8745 14.186 12.8906 14.2057C12.9209 14.2451 12.9598 14.2939 13.0071 14.3482C13.1008 14.456 13.2296 14.5938 13.3934 14.741C13.7173 15.0316 14.2153 15.3954 14.8866 15.6326C16.3978 16.166 18.1948 15.8716 20.0024 14.336L20.0204 14.321L20.0374 14.306L18.7393 12.8794C20.0375 14.3062 20.0384 14.3051 20.0393 14.3042L20.045 14.2985L20.0554 14.2901L20.0592 14.2854C20.0658 14.2798 20.0725 14.2732 20.081 14.2667C20.0999 14.2479 20.1245 14.2254 20.152 14.1982C20.2088 14.1429 20.2827 14.0698 20.3688 13.9779C20.5411 13.7932 20.7665 13.5335 21.0117 13.2026C21.3422 12.7545 21.7171 12.1611 22.0372 11.4373C22.0457 11.547 22.0533 11.6595 22.059 11.7729C21.9927 14.8984 20.9142 17.458 19.2069 19.2251C17.4969 20.9941 15.053 22.0799 12.0335 22.0799C6.31441 22.0799 1.80465 17.3454 1.94185 11.6464L1.94213 11.6465ZM11.3917 5.1543L10.8331 5.13561C11.0405 5.14311 11.226 5.14868 11.3917 5.1543Z" fill="#AAA5A5"/>
</svg>
