<svg width="24" height="24" viewBox="0 0 24 24" fill="none" xmlns="http://www.w3.org/2000/svg">
<path fill-rule="evenodd" clip-rule="evenodd" d="M24 12C24 18.6271 18.6271 24 12 24C5.37288 24 0 18.6271 0 12C0 5.37288 5.37288 0 12 0C18.6271 0 24 5.37288 24 12ZM12 23.28C18.2287 23.28 23.279 18.2306 23.28 12.0019C23.2791 18.2278 18.2258 23.28 12 23.28ZM23.28 12C23.28 5.87448 18.3974 0.88968 12.3132 0.7248C18.3948 0.8898 23.28 5.87832 23.28 12ZM11.7084 0.72384C5.6136 0.878527 0.72 5.868 0.72 12C0.72 5.87064 5.61648 0.8784 11.7084 0.72384ZM0.72 12.0029C0.720937 18.228 5.77416 23.28 12 23.28C5.77128 23.28 0.72096 18.2316 0.72 12.0029ZM11.5106 2.03256C11.4975 1.8235 11.3185 1.66318 11.1094 1.68101C7.97258 1.95475 5.22002 3.62539 3.5081 6.06749C3.38717 6.24093 3.43685 6.4781 3.6131 6.59436C3.79217 6.71249 4.03217 6.66092 4.15498 6.48561C4.37623 6.17248 4.61436 5.87248 4.8703 5.58748C5.01186 5.42998 5.25562 5.42717 5.40655 5.57623C5.55843 5.72436 5.80123 5.72061 5.955 5.5753C6.93845 4.64998 8.13281 3.94781 9.45948 3.54936C9.66292 3.48749 9.78761 3.27936 9.7351 3.0731C9.6826 2.86779 9.80728 2.65778 10.0154 2.61372C10.3857 2.53591 10.7635 2.47966 11.147 2.44591C11.3598 2.42809 11.5238 2.24538 11.5106 2.03256ZM12.8906 1.68101C12.6816 1.6632 12.5025 1.82351 12.4894 2.03256C12.4763 2.24537 12.6403 2.42818 12.8531 2.44601C13.2375 2.47976 13.6153 2.53601 13.9847 2.61382C14.1928 2.65788 14.3175 2.86788 14.265 3.0732C14.2125 3.27945 14.3372 3.48759 14.5406 3.54946C15.8681 3.94791 17.0645 4.65008 18.0477 5.5754C18.2015 5.72071 18.4443 5.72446 18.5952 5.57727C18.7471 5.42915 18.9908 5.43196 19.1315 5.58946C19.3865 5.87352 19.6246 6.17352 19.8449 6.48571C19.9677 6.66103 20.2077 6.71259 20.3868 6.59446C20.5631 6.47821 20.6127 6.24102 20.4918 6.06759C18.7781 3.62079 16.0332 1.94813 12.8906 1.68101ZM12.4538 5.04845C12.3066 5.04001 12.1528 5.03626 12 5.03626C11.8453 5.03626 11.6897 5.04189 11.5406 5.05126C11.2828 5.0672 11.1038 5.30252 11.1347 5.55939L11.4432 8.12067C11.4741 8.37941 11.2922 8.61192 11.0419 8.68412C10.5028 8.83974 10.0191 9.12286 9.62345 9.4988C9.43595 9.67692 9.14532 9.7163 8.93813 9.56161L6.87751 8.01755C6.66845 7.86098 6.37219 7.90036 6.2297 8.1188C6.06752 8.36628 5.90815 8.6438 5.7769 8.90912C5.66252 9.14162 5.7769 9.41444 6.01502 9.51567L8.36534 10.5197C8.60628 10.6229 8.71596 10.8985 8.65221 11.1525C8.58378 11.4235 8.54721 11.7075 8.54721 12C8.54721 12.2775 8.58003 12.5466 8.6419 12.8044C8.7019 13.0566 8.59128 13.3275 8.35316 13.4297L6.01222 14.4319C5.77222 14.5341 5.65784 14.8097 5.77597 15.0432C5.91003 15.3085 6.07129 15.586 6.23629 15.8326C6.37973 16.0482 6.67316 16.0848 6.88035 15.9301L8.90723 14.4094C9.11629 14.2519 9.40974 14.2941 9.59723 14.476C9.99567 14.8632 10.4878 15.1557 11.0354 15.3151C11.2857 15.3882 11.4666 15.6207 11.4357 15.8785L11.1347 18.3872C11.1038 18.6469 11.2857 18.8832 11.5463 18.8982C11.8425 18.9151 12.1632 18.9151 12.4594 18.8963C12.7172 18.8804 12.8963 18.645 12.8654 18.3872L12.5644 15.8785C12.5335 15.6207 12.7144 15.3882 12.9647 15.3151C13.5122 15.1557 14.0044 14.8641 14.4029 14.4779C14.5904 14.296 14.8838 14.2538 15.0929 14.4104L17.1235 15.9301C17.3316 16.0857 17.6279 16.0472 17.7704 15.8288C17.9325 15.5813 18.0919 15.3038 18.2232 15.0376C18.3385 14.806 18.2232 14.5332 17.985 14.431L15.6478 13.4316C15.4097 13.3304 15.2982 13.0585 15.3591 12.8063C15.421 12.5476 15.4528 12.2776 15.4528 12C15.4528 11.7085 15.4163 11.4254 15.3478 11.1544C15.2832 10.9013 15.3938 10.6257 15.6338 10.5226L17.9878 9.51568C18.2278 9.41349 18.3422 9.13694 18.2241 8.90442C18.09 8.6391 17.9288 8.36162 17.7638 8.1141C17.6203 7.89942 17.3269 7.86191 17.1197 8.01754L15.0619 9.56067C14.8547 9.7163 14.5641 9.67692 14.3766 9.4988C13.981 9.12286 13.4972 8.83973 12.9581 8.68412C12.7078 8.61193 12.5259 8.37944 12.5569 8.12067L12.8644 5.56035C12.8962 5.30067 12.7144 5.06345 12.4538 5.04845ZM3.12185 7.43813C2.93341 7.34532 2.70466 7.42032 2.61559 7.61063C1.99027 8.94376 1.64059 10.4316 1.64059 12C1.64059 13.5684 1.99027 15.0561 2.61559 16.3893C2.70465 16.5797 2.9334 16.6547 3.12185 16.5618C3.31404 16.4662 3.39091 16.2318 3.29997 16.0368C3.13966 15.6928 2.99904 15.3384 2.87997 14.9737C2.81341 14.7722 2.93341 14.5603 3.13685 14.5022C3.34122 14.445 3.45936 14.2331 3.41059 14.0268C3.25684 13.3753 3.17528 12.6975 3.17528 12C3.17528 11.3034 3.25684 10.6256 3.41059 9.97591C3.45934 9.76966 3.34122 9.55778 3.13685 9.49966C2.93341 9.44247 2.8134 9.23059 2.87904 9.02904C2.99904 8.66342 3.13965 8.3081 3.29997 7.9631C3.39091 7.7681 3.31404 7.53374 3.12185 7.43813ZM21.3844 7.61063C21.2953 7.42032 21.0666 7.34531 20.8782 7.43813C20.686 7.53375 20.6091 7.76813 20.7 7.96313C20.8603 8.30813 21.001 8.66345 21.121 9.02906C21.1866 9.23063 21.0666 9.44251 20.8632 9.49968C20.6588 9.55781 20.5406 9.76968 20.5894 9.97593C20.7432 10.6256 20.8247 11.3034 20.8247 12C20.8247 12.6975 20.7432 13.3753 20.5894 14.0269C20.5407 14.2331 20.6588 14.445 20.8632 14.5022C21.0666 14.5603 21.1866 14.7722 21.12 14.9737C21.001 15.3384 20.8603 15.6928 20.7 16.0369C20.6091 16.2319 20.686 16.4663 20.8782 16.5619C21.0666 16.6547 21.2953 16.5797 21.3844 16.3894C22.0097 15.0562 22.3594 13.5684 22.3594 12C22.3594 10.4316 22.0097 8.94383 21.3844 7.61063ZM4.15505 17.5145C4.03224 17.3392 3.79224 17.2876 3.61318 17.4057C3.43786 17.522 3.38724 17.7592 3.50818 17.9326C5.22192 20.3794 7.9669 22.052 11.1095 22.3191C11.3185 22.3369 11.4976 22.1766 11.5107 21.9675C11.5238 21.7547 11.3598 21.5719 11.147 21.5541C10.7626 21.5203 10.3848 21.4641 10.0154 21.3863C9.80729 21.3422 9.68261 21.1322 9.7351 20.9269C9.7876 20.7206 9.66291 20.5125 9.45948 20.4506C8.13293 20.0522 6.93852 19.35 5.955 18.4247C5.80125 18.2794 5.55845 18.2756 5.40655 18.4237C5.25561 18.5728 5.01187 18.57 4.8703 18.4125C4.61436 18.1275 4.3763 17.8276 4.15505 17.5145ZM20.3879 17.4067C20.2098 17.2885 19.9707 17.3392 19.847 17.5135C19.6267 17.8267 19.3876 18.1267 19.1326 18.4107C18.991 18.5682 18.7473 18.571 18.5954 18.4229C18.4445 18.2757 18.2017 18.2795 18.0479 18.4248C17.0645 19.3501 15.8682 20.0523 14.5408 20.4507C14.3374 20.5126 14.2127 20.7207 14.2652 20.927C14.3177 21.1323 14.193 21.3423 13.9849 21.3864C13.6155 21.4642 13.2377 21.5204 12.8533 21.5542C12.6405 21.572 12.4764 21.7548 12.4896 21.9676C12.5027 22.1767 12.6818 22.337 12.8908 22.3192C16.0344 22.052 18.7792 20.3795 20.4931 17.9308C20.6131 17.7592 20.5632 17.5229 20.3879 17.4067Z" fill="#AAA5A5"/>
</svg>
